<svg width="114" height="29" viewBox="0 0 114 29" fill="none" xmlns="http://www.w3.org/2000/svg">
<path d="M2.7849 10.2732H1.50795C0.675134 10.2732 0 10.9482 0 11.7808V27.1081C0 27.9407 0.675134 28.6157 1.50795 28.6157H2.7849C3.61772 28.6157 4.29285 27.9407 4.29285 27.1081V11.7808C4.29285 10.9482 3.61772 10.2732 2.7849 10.2732Z" fill="white"/>
<path d="M27.498 0.206543H25.939C25.2087 0.206543 24.6167 0.798432 24.6167 1.52856V27.3285C24.6167 28.0587 25.2087 28.6505 25.939 28.6505H27.498C28.2283 28.6505 28.8203 28.0587 28.8203 27.3285V1.52856C28.8203 0.798432 28.2283 0.206543 27.498 0.206543Z" fill="white"/>
<path d="M37.2592 6.95581H35.7002C34.9699 6.95581 34.3779 7.5477 34.3779 8.27783V27.3288C34.3779 28.059 34.9699 28.6508 35.7002 28.6508H37.2592C37.9895 28.6508 38.5815 28.059 38.5815 27.3288V8.27783C38.5815 7.5477 37.9895 6.95581 37.2592 6.95581Z" fill="white"/>
<path d="M55.5315 5.47196H51.4782V1.52856C51.4782 0.798831 50.8857 0.206543 50.1559 0.206543H48.5969C47.867 0.206543 47.2746 0.798831 47.2746 1.52856V5.47196H42.7862C42.0563 5.47196 41.4639 6.06425 41.4639 6.79398V8.35263C41.4639 9.08237 42.0563 9.67465 42.7862 9.67465H47.2746V27.3285C47.2746 28.0583 47.867 28.6505 48.5969 28.6505H50.1559C50.8857 28.6505 51.4782 28.0583 51.4782 27.3285V9.67465H55.5315C56.2614 9.67465 56.8538 9.08237 56.8538 8.35263V6.79398C56.8538 6.06425 56.2614 5.47196 55.5315 5.47196Z" fill="white"/>
<path d="M69.7445 11.6967C67.5775 11.6967 65.5735 12.391 63.9409 13.5699V2.30789C63.9409 1.1474 62.9998 0.206543 61.8391 0.206543C60.6784 0.206543 59.7373 1.1474 59.7373 2.30789V26.5492C59.7373 27.7097 60.6784 28.6505 61.8391 28.6505C62.9998 28.6505 63.9409 27.7097 63.9409 26.5492V21.6224V21.5955C63.9409 18.4867 66.4622 15.9659 69.5716 15.9659H69.8876C72.9971 15.9659 75.5184 18.4867 75.5184 21.5941V27.3342C75.5184 28.0597 76.1065 28.6477 76.8322 28.6477H78.3586C79.0842 28.6477 79.6723 28.0597 79.6723 27.3342V21.6253C79.6723 21.6253 79.6723 21.6224 79.6723 21.6196C79.6723 16.1374 75.2278 11.6938 69.7445 11.6938V11.6967Z" fill="white"/>
<path d="M113.879 13.0309C113.814 8.97278 110.504 5.70386 106.43 5.70386H105.766C101.691 5.70386 98.3819 8.97278 98.3167 13.0309H98.3365C98.3223 13.1287 98.3153 13.2293 98.3153 13.3313V20.4742C98.3153 23.0843 96.1993 25.1998 93.5887 25.1998H91.1879C88.5773 25.1998 86.4614 23.0843 86.4614 20.4742V14.4748C86.4614 13.7451 85.869 13.1528 85.1391 13.1528H83.5801C82.8502 13.1528 82.2578 13.7451 82.2578 14.4748V19.8876C82.2578 24.7265 86.1822 28.6501 91.0221 28.6501H93.7531C98.593 28.6501 102.517 24.7265 102.517 19.8876V12.9346C102.517 10.8843 104.18 9.22358 106.229 9.22358C108.279 9.22358 109.941 10.8857 109.941 12.9346V13.0295H113.878L113.879 13.0309Z" fill="white"/>
<path d="M84.3586 11.5154C85.5194 11.5154 86.4604 10.5746 86.4604 9.41409C86.4604 8.25355 85.5194 7.31274 84.3586 7.31274C83.1978 7.31274 82.2568 8.25355 82.2568 9.41409C82.2568 10.5746 83.1978 11.5154 84.3586 11.5154Z" fill="white"/>
<path d="M36.4797 4.409C37.6405 4.409 38.5815 3.46819 38.5815 2.30765C38.5815 1.1471 37.6405 0.206299 36.4797 0.206299C35.3189 0.206299 34.3779 1.1471 34.3779 2.30765C34.3779 3.46819 35.3189 4.409 36.4797 4.409Z" fill="white"/>
<path d="M10.2751 0C4.60039 0 0 4.59944 0 10.2729C0 15.9464 4.60039 20.5459 10.2751 20.5459C15.9497 20.5459 20.5501 15.9464 20.5501 10.2729C20.5501 4.59944 15.9497 0 10.2751 0ZM10.2751 16.2539C6.97145 16.2539 4.29285 13.5759 4.29285 10.2729C4.29285 6.97001 6.97145 4.29196 10.2751 4.29196C13.5787 4.29196 16.2573 6.97001 16.2573 10.2729C16.2573 13.5759 13.5787 16.2539 10.2751 16.2539Z" fill="white"/>
<path d="M106.387 14.9014V18.6152C108.23 18.6152 109.723 20.1087 109.723 21.9507C109.723 23.7928 108.23 25.2862 106.387 25.2862V29.0001C110.282 29.0001 113.438 25.8431 113.438 21.9507C113.438 18.0583 110.28 14.9014 106.387 14.9014Z" fill="white"/>
</svg>
